<svg xmlns="http://www.w3.org/2000/svg" viewBox="0 0 128 128">
  <g fill="#F45B43">
    <ellipse cx="28" cy="38" rx="13" ry="19" transform="rotate(-24 28 38)"/>
    <ellipse cx="52" cy="24" rx="13" ry="20" transform="rotate(-8 52 24)"/>
    <ellipse cx="76" cy="24" rx="13" ry="20" transform="rotate(8 76 24)"/>
    <ellipse cx="100" cy="38" rx="13" ry="19" transform="rotate(24 100 38)"/>
    <path d="M64 112C53 99 28 84 28 66c0-15 11-26 25-26 7 0 12 3 16 8 4-5 9-8 16-8 14 0 25 11 25 26 0 18-25 33-46 46z"/>
  </g>
</svg>
